<svg xmlns="http://www.w3.org/2000/svg" viewBox="0 0 100 100">
  <defs>
    <linearGradient id="bikeGradient" x1="0%" y1="0%" x2="100%" y2="100%">
      <stop offset="0%" style="stop-color:#3B82F6;stop-opacity:1" />
      <stop offset="100%" style="stop-color:#06B6D4;stop-opacity:1" />
    </linearGradient>
  </defs>
  
  <!-- Motorcycle silhouette -->
  <path d="M 20 60 Q 25 55 30 60 L 35 60 L 40 50 L 50 50 L 55 40 L 65 40 L 70 50 L 75 50 Q 80 55 75 60 Q 80 65 75 70 Q 70 65 70 60 L 65 60 L 60 70 L 40 70 L 35 60 L 30 60 Q 25 65 20 70 Q 15 65 20 60 Z" 
        fill="url(#bikeGradient)" 
        stroke="#fff" 
        stroke-width="2"/>
  
  <!-- Wheels -->
  <circle cx="25" cy="65" r="8" fill="none" stroke="url(#bikeGradient)" stroke-width="3"/>
  <circle cx="70" cy="65" r="8" fill="none" stroke="url(#bikeGradient)" stroke-width="3"/>
  
  <!-- Wrench icon (maintenance) -->
  <path d="M 75 20 L 80 15 L 85 20 L 80 25 L 75 20 M 75 20 L 70 25 L 65 20 L 70 15 Z" 
        fill="#06B6D4" 
        stroke="#fff" 
        stroke-width="1.5"/>
</svg>
